{"glyphs":{":":{"x_min":0,"x_max":358,"ha":358,"o":""},"$":{"x_min":0,"x_max":522,"ha":522,"o":"m 70 146 q 113 117 152 105 q 191 93 229 93 q 262 93 285 101 q 307 108 321 121 q 334 133 340 149 q 345 166 345 182 q 345 209 333 231 q 321 253 302 273 q 282 293 257 312 q 232 331 206 351 q 180 371 155 393 q 130 416 110 442 q 91 469 79 502 q 67 535 67 576 q 67 612 77 643 q 87 674 106 698 q 125 723 150 740 q 176 757 208 767 l 208 934 l 312 934 l 312 775 q 342 772 371 765 q 399 758 421 747 l 421 632 q 386 654 354 664 q 323 674 292 674 q 265 674 245 667 q 225 660 212 648 q 199 636 193 619 q 187 603 187 583 q 187 555 198 532 q 210 509 230 489 q 250 469 275 450 q 300 432 326 413 q 352 393 377 372 q 402 350 422 324 q 441 298 453 266 q 465 234 465 193 q 465 157 455 125 q 444 94 425 69 q 405 43 377 26 q 349 8 313 -1 l 313 -167 l 209 -167 l 209 -10 q 190 -8 171 -5 q 152 -2 134 3 q 116 7 99 14 q 83 20 69 28 z"},"?":{"x_min":0,"x_max":492,"ha":492,"o":"m 160 465 q 206 482 238 502 q 270 521 290 543 q 310 564 319 587 q 328 609 328 633 q 328 655 320 674 q 312 693 297 708 q 282 722 259 730 q 235 739 204 739 q 184 739 164 735 q 144 732 125 726 q 106 720 89 711 q 72 703 59 693 l 59 807 q 96 824 137 832 q 178 840 217 840 q 275 840 318 824 q 360 809 389 781 q 417 754 432 718 q 446 682 446 642 q 446 568 400 512 q 355 456 266 414 l 266 301 l 162 301 z m 125 79 q 125 99 131 115 q 138 131 150 143 q 163 155 180 161 q 197 167 218 167 q 240 167 257 161 q 275 155 287 143 q 300 131 307 115 q 313 99 313 79 q 313 59 307 43 q 300 27 287 15 q 275 3 257 -3 q 240 -9 218 -9 q 197 -9 180 -3 q 163 3 150 15 q 138 27 131 43 q 125 59 125 79 z"},"<":{"x_min":0,"x_max":595,"ha":595,"o":"m 397 613 l 539 613 l 214 323 l 539 33 l 397 33 l 71 323 z"},"'":{"x_min":0,"x_max":282,"ha":282,"o":"m 81 847 l 201 847 l 191 468 l 91 468 z"},"=":{"x_min":0,"x_max":656,"ha":656,"o":"m 100 530 l 556 530 l 556 426 l 100 426 z m 100 311 l 556 311 l 556 207 l 100 207 z"},"a":{"x_min":0,"x_max":555,"ha":555,"o":"m 42 150 q 42 240 104 287 q 166 334 287 334 l 357 334 l 357 365 q 357 392 351 412 q 345 432 332 446 q 318 459 297 467 q 275 474 244 474 q 222 474 203 470 q 184 467 166 461 q 147 455 128 447 q 108 438 87 429 l 87 526 q 106 536 126 543 q 146 550 168 555 q 191 561 216 563 q 242 565 271 565 q 375 565 425 513 q 476 461 476 361 l 476 127 q 476 109 476 93 q 476 78 477 62 q 478 47 481 32 q 484 17 490 0 l 369 0 q 364 13 362 28 q 359 43 358 59 q 333 27 296 8 q 259 -11 209 -11 q 171 -11 140 2 q 109 15 87 37 q 65 60 53 89 q 42 118 42 150 z m 161 167 q 161 150 166 135 q 171 120 181 107 q 192 95 208 88 q 225 81 249 81 q 278 81 307 93 q 335 105 357 130 l 357 255 l 292 255 q 255 255 230 249 q 205 242 190 230 q 174 219 168 202 q 161 186 161 167 z"},"L":{"x_min":0,"x_max":485,"ha":485,"o":"m 104 767 l 224 767 l 224 99 l 459 99 l 459 0 l 104 0 z"},"3":{"x_min":0,"x_max":580,"ha":580,"o":"m 60 160 q 86 140 113 126 q 139 113 163 105 q 188 97 210 94 q 233 90 253 90 q 287 90 315 99 q 343 107 363 124 q 383 140 394 162 q 404 185 404 214 q 404 246 390 271 q 376 297 348 314 q 320 332 278 340 q 236 348 180 344 l 180 431 q 228 445 262 462 q 296 479 318 498 q 339 517 349 539 q 359 561 359 584 q 359 606 352 624 q 344 642 330 654 q 315 666 295 672 q 275 678 250 678 q 231 678 209 674 q 188 670 166 662 q 145 654 123 642 q 102 630 82 613 l 82 732 q 95 742 115 750 q 135 759 158 765 q 182 771 208 775 q 235 778 261 778 q 315 778 356 763 q 397 749 425 723 q 453 698 466 665 q 480 632 480 596 q 480 573 474 549 q 467 526 452 503 q 436 481 410 460 q 384 438 344 420 q 394 403 428 382 q 463 361 484 335 q 505 310 515 280 q 524 250 524 215 q 524 159 502 116 q 480 74 442 45 q 404 17 355 3 q 305 -11 251 -11 q 219 -11 190 -6 q 161 -2 135 6 q 110 14 91 24 q 71 35 60 46 z"},";":{"x_min":0,"x_max":375,"ha":375,"o":""},"J":{"x_min":0,"x_max":358,"ha":358,"o":"m 33 82 q 86 83 116 110 q 146 136 146 184 l 146 767 l 266 767 l 266 196 q 266 148 253 109 q 240 71 212 44 q 184 18 139 3 q 95 -11 33 -11 z"},"V":{"x_min":0,"x_max":587,"ha":587,"o":"m 14 767 l 141 767 l 299 139 l 316 139 l 447 767 l 573 767 l 392 0 l 224 0 z"},"\"":{"x_min":0,"x_max":489,"ha":489,"o":""},"7":{"x_min":0,"x_max":551,"ha":551,"o":"m 364 663 l 30 663 l 30 767 l 521 767 l 248 0 l 115 0 z"},"S":{"x_min":0,"x_max":517,"ha":517,"o":"m 67 144 q 110 114 149 103 q 188 91 226 91 q 259 91 282 99 q 305 107 319 120 q 333 133 339 149 q 345 166 345 182 q 345 209 333 231 q 321 253 301 273 q 281 293 256 312 q 231 330 205 350 q 178 370 153 392 q 127 415 108 442 q 88 469 76 502 q 64 535 64 576 q 64 623 80 660 q 97 697 125 723 q 154 749 194 763 q 233 777 280 777 q 317 777 354 769 q 391 761 418 747 l 418 634 q 383 657 352 667 q 320 676 290 676 q 262 676 242 669 q 222 662 208 649 q 195 636 188 619 q 182 603 182 583 q 182 555 194 532 q 206 509 225 489 q 245 469 271 451 q 296 433 322 413 q 348 394 374 372 q 399 351 419 324 q 438 298 450 266 q 462 234 462 193 q 462 148 447 110 q 431 73 401 46 q 372 19 329 4 q 287 -11 235 -11 q 213 -11 190 -8 q 167 -5 145 0 q 123 4 103 11 q 83 19 67 28 z"},"}":{"x_min":0,"x_max":509,"ha":509,"o":""},"Z":{"x_min":0,"x_max":569,"ha":569,"o":"m 363 668 l 80 668 l 80 767 l 536 767 l 218 99 l 524 99 l 524 0 l 42 0 z"},"x":{"x_min":0,"x_max":519,"ha":519,"o":"m 192 294 l 25 554 l 155 554 l 259 380 l 361 554 l 484 554 l 323 286 l 501 0 l 373 0 l 253 199 l 139 0 l 18 0 z"},")":{"x_min":0,"x_max":552,"ha":552,"o":""},"&":{"x_min":0,"x_max":780,"ha":780,"o":"m 76 212 q 76 283 114 336 q 151 389 223 420 q 192 440 172 462 q 151 484 139 507 q 126 530 121 552 q 115 575 115 596 q 115 632 130 665 q 146 698 174 723 q 203 749 245 763 q 287 778 340 778 q 382 778 415 770 q 447 761 469 749 l 469 630 q 416 678 350 678 q 326 678 306 672 q 286 666 271 654 q 257 642 249 623 q 241 605 241 581 q 241 556 251 532 q 261 507 283 488 q 305 468 341 456 q 377 444 430 444 l 493 444 l 493 554 l 613 554 l 613 444 l 689 444 l 689 355 l 613 355 l 613 161 q 613 124 629 107 q 646 90 673 90 q 683 90 693 92 q 704 93 716 97 l 716 0 q 698 -6 681 -9 q 665 -11 645 -11 q 605 -11 576 0 q 546 11 526 35 q 485 13 438 1 q 392 -11 337 -11 q 269 -11 219 8 q 170 26 138 58 q 106 89 91 129 q 76 169 76 212 z m 202 218 q 202 190 211 167 q 220 144 239 126 q 258 109 286 100 q 314 90 353 90 q 395 90 430 101 q 465 111 494 126 q 493 131 493 136 q 493 142 493 147 l 493 355 l 369 355 q 329 355 298 345 q 267 335 246 317 q 225 299 213 274 q 202 249 202 218 z"},"_":{"x_min":0,"x_max":656,"ha":656,"o":"m 701 -95 l 701 -166 l -44 -166 l -44 -95 z"},"v":{"x_min":0,"x_max":501,"ha":501,"o":"m 3 554 l 124 554 l 251 118 l 259 118 l 379 554 l 499 554 l 318 0 l 192 0 z"},"O":{"x_min":0,"x_max":658,"ha":658,"o":"m 329 -11 q 269 -11 218 13 q 167 36 130 85 q 93 133 72 208 q 51 282 51 384 q 51 486 72 560 q 93 634 130 683 q 167 731 218 754 q 269 778 329 778 q 389 778 440 754 q 491 731 528 683 q 565 634 586 560 q 607 486 607 384 q 607 282 586 208 q 565 133 528 85 q 491 36 440 13 q 389 -11 329 -11 z m 329 90 q 360 90 389 107 q 417 123 438 158 q 460 193 473 249 q 485 305 485 383 q 485 462 473 518 q 460 574 438 610 q 417 646 389 662 q 360 679 329 679 q 298 679 270 662 q 241 646 219 610 q 198 574 185 518 q 172 462 172 383 q 172 305 185 249 q 198 193 219 158 q 241 123 270 107 q 298 90 329 90 z"},"(":{"x_min":0,"x_max":552,"ha":552,"o":"m 119 398 q 119 470 131 532 q 144 595 166 648 q 188 701 218 744 q 247 787 281 819 q 315 852 352 874 q 389 896 425 907 l 425 803 q 385 779 352 742 q 318 705 293 654 q 269 603 255 539 q 241 475 241 398 q 241 321 255 257 q 269 193 293 142 q 318 91 352 54 q 385 17 425 -7 l 425 -111 q 389 -101 352 -78 q 315 -56 281 -23 q 247 9 218 52 q 188 95 166 148 q 144 201 131 264 q 119 326 119 398 z"},"C":{"x_min":0,"x_max":551,"ha":551,"o":"m 370 -11 q 300 -11 243 13 q 185 37 144 86 q 103 135 80 209 q 57 284 57 386 q 57 487 78 561 q 100 635 139 683 q 178 731 232 755 q 287 778 354 778 q 378 778 402 775 q 426 772 448 768 q 469 763 486 757 q 503 750 515 742 l 515 623 q 484 651 446 664 q 408 677 367 677 q 325 677 290 660 q 255 644 230 609 q 206 574 192 519 q 178 464 178 387 q 178 309 192 253 q 207 197 233 161 q 260 125 298 107 q 336 90 384 90 q 419 90 455 100 q 490 110 518 135 l 518 25 q 494 10 456 0 q 418 -11 370 -11 z"},"W":{"x_min":0,"x_max":931,"ha":931,"o":"m 20 767 l 152 767 l 255 118 l 272 118 l 409 767 l 526 767 l 663 118 l 679 118 l 781 767 l 911 767 l 753 0 l 581 0 l 469 543 l 462 543 l 349 0 l 176 0 z"},"A":{"x_min":0,"x_max":621,"ha":621,"o":"m 224 767 l 386 767 l 609 0 l 482 0 l 432 191 l 186 191 l 138 0 l 11 0 z m 406 286 l 312 639 l 298 639 l 209 286 z"},"f":{"x_min":0,"x_max":339,"ha":339,"o":"m 99 468 l 42 468 l 42 554 l 99 554 l 99 663 q 99 703 110 736 q 121 769 143 792 q 166 815 199 828 q 232 841 276 841 q 287 841 299 840 q 311 839 318 838 l 318 743 q 302 750 284 750 q 251 750 233 731 q 216 712 216 677 l 216 554 l 305 554 l 305 468 l 216 468 l 216 0 l 99 0 z"},"Q":{"x_min":0,"x_max":658,"ha":658,"o":"m 275 45 l 375 45 l 375 -16 q 375 -35 379 -50 q 382 -64 390 -74 q 399 -83 413 -89 q 428 -94 450 -94 q 471 -94 496 -86 l 496 -183 q 477 -187 459 -190 q 441 -192 419 -192 q 275 -192 275 -31 z m 329 -11 q 269 -11 218 13 q 167 36 130 85 q 93 133 72 208 q 51 282 51 384 q 51 486 72 560 q 93 634 130 683 q 167 731 218 754 q 269 778 329 778 q 389 778 440 754 q 491 731 528 683 q 565 634 586 560 q 607 486 607 384 q 607 282 586 208 q 565 133 528 85 q 491 36 440 13 q 389 -11 329 -11 z m 329 90 q 360 90 389 107 q 417 123 438 158 q 460 193 473 249 q 485 305 485 383 q 485 462 473 518 q 460 574 438 610 q 417 646 389 662 q 360 679 329 679 q 298 679 270 662 q 241 646 219 610 q 198 574 185 518 q 172 462 172 383 q 172 305 185 249 q 198 193 219 158 q 241 123 270 107 q 298 90 329 90 z"},"w":{"x_min":0,"x_max":815,"ha":815,"o":"m 158 0 l 5 554 l 129 554 l 226 118 l 236 118 l 348 554 l 477 554 l 590 118 l 598 118 l 693 554 l 810 554 l 665 0 l 522 0 l 409 414 l 406 414 l 305 0 z"},"-":{"x_min":0,"x_max":545,"ha":545,"o":"m 100 420 l 445 420 l 445 315 l 100 315 z"},"E":{"x_min":0,"x_max":563,"ha":563,"o":"m 104 767 l 508 767 l 508 670 l 224 670 l 224 458 l 440 458 l 440 362 l 224 362 l 224 99 l 527 99 l 527 0 l 104 0 z"},"s":{"x_min":0,"x_max":462,"ha":462,"o":"m 71 121 q 107 99 145 89 q 183 80 212 80 q 255 80 278 96 q 302 112 302 142 q 302 158 294 170 q 286 182 271 193 q 256 204 236 215 q 215 227 189 242 q 166 256 144 272 q 122 288 105 308 q 88 328 78 354 q 67 379 67 413 q 67 446 80 474 q 92 502 116 522 q 141 542 177 554 q 212 565 259 565 q 271 565 286 564 q 302 562 318 560 q 333 557 348 552 q 363 548 375 542 l 375 450 q 366 455 353 460 q 340 465 325 469 q 311 473 296 475 q 282 477 269 477 q 247 477 230 472 q 214 467 203 459 q 193 451 188 440 q 183 429 183 417 q 183 401 190 388 q 197 376 209 365 q 222 354 240 343 q 258 332 280 318 q 303 305 327 289 q 351 273 370 253 q 389 233 402 207 q 414 181 414 147 q 414 112 401 83 q 387 54 362 33 q 336 12 300 0 q 263 -11 216 -11 q 180 -11 141 -3 q 103 4 71 20 z"},">":{"x_min":0,"x_max":595,"ha":595,"o":""},"l":{"x_min":0,"x_max":283,"ha":283,"o":"m 83 835 l 200 835 l 200 0 l 83 0 z"},"8":{"x_min":0,"x_max":627,"ha":627,"o":"m 42 218 q 42 249 49 278 q 57 308 74 334 q 92 361 119 383 q 146 406 186 422 l 186 431 q 167 440 149 454 q 131 468 117 489 q 104 509 95 537 q 86 564 86 602 q 86 638 100 670 q 113 702 140 726 q 167 750 207 764 q 247 778 299 778 q 351 778 391 764 q 431 750 458 726 q 484 702 498 670 q 512 638 512 602 q 512 564 503 537 q 495 509 480 489 q 466 468 448 454 q 431 440 412 431 l 412 422 q 451 406 479 383 q 506 361 523 334 q 541 308 548 278 q 556 249 556 218 q 556 174 541 133 q 525 91 493 60 q 461 28 413 9 q 364 -11 299 -11 q 233 -11 185 9 q 136 28 104 60 q 73 91 57 133 q 42 174 42 218 z m 298 473 q 319 473 336 480 q 353 487 365 501 q 377 515 384 536 q 391 557 391 583 q 391 631 367 657 q 344 684 299 684 q 254 684 230 657 q 207 631 207 583 q 207 557 213 536 q 220 515 232 501 q 245 487 261 480 q 278 473 298 473 z m 162 226 q 162 193 171 167 q 180 142 198 124 q 215 106 241 96 q 266 86 299 86 q 332 86 357 96 q 383 106 400 124 q 418 142 427 167 q 436 193 436 226 q 436 258 427 284 q 417 309 399 327 q 381 344 356 353 q 331 362 299 362 q 267 362 242 353 q 216 344 199 327 q 181 309 172 284 q 162 258 162 226 z"},"\\":{"x_min":0,"x_max":763,"ha":763,"o":""},"e":{"x_min":0,"x_max":544,"ha":544,"o":"m 42 281 q 42 355 62 409 q 82 462 116 497 q 150 532 194 548 q 238 565 286 565 q 331 565 369 551 q 407 536 435 507 q 462 479 478 435 q 493 392 493 335 q 493 310 490 285 q 486 261 478 238 l 167 238 q 173 188 187 157 q 201 126 222 109 q 242 92 268 86 q 293 81 322 81 q 360 81 392 91 q 423 101 454 118 l 454 24 q 416 5 377 -3 q 339 -11 301 -11 q 241 -11 193 8 q 145 28 111 65 q 78 103 60 157 q 42 211 42 281 z m 376 318 q 381 353 377 382 q 374 411 362 431 q 350 452 330 463 q 310 474 282 474 q 230 474 198 434 q 166 394 164 318 z"},"b":{"x_min":0,"x_max":582,"ha":582,"o":"m 69 835 l 187 835 l 187 598 l 185 513 q 208 537 241 551 q 274 565 319 565 q 367 565 408 547 q 448 529 478 494 q 507 459 523 406 q 540 354 540 285 q 540 208 520 152 q 500 97 468 60 q 435 24 391 6 q 347 -11 300 -11 q 257 -11 226 -2 q 195 8 173 26 l 167 0 l 69 0 z m 187 107 q 208 93 231 87 q 254 81 279 81 q 309 81 334 92 q 359 103 378 126 q 396 150 406 188 q 417 225 417 278 q 417 329 407 366 q 398 403 381 427 q 364 451 340 462 q 316 474 287 474 q 259 474 233 464 q 208 454 187 436 z"},"%":{"x_min":0,"x_max":1088,"ha":1088,"o":"m 257 370 q 217 370 183 384 q 149 397 124 426 q 100 454 86 497 q 72 540 72 598 q 72 657 86 700 q 100 743 124 771 q 149 799 183 813 q 217 827 257 827 q 298 827 332 813 q 366 799 390 771 q 415 743 429 700 q 443 657 443 598 q 443 540 429 497 q 415 454 390 426 q 366 397 332 384 q 298 370 257 370 z m 671 824 l 775 824 l 425 0 l 320 0 z m 257 459 q 275 459 290 466 q 305 473 315 490 q 326 506 332 532 q 338 559 338 597 q 338 636 332 662 q 326 688 315 705 q 305 721 290 729 q 275 736 257 736 q 240 736 225 729 q 210 721 199 705 q 188 688 182 662 q 176 636 176 597 q 176 559 182 532 q 188 506 199 490 q 210 473 225 466 q 240 459 257 459 z m 644 218 q 644 277 658 320 q 672 363 697 391 q 721 419 755 433 q 790 447 830 447 q 871 447 905 433 q 938 419 963 391 q 988 363 1002 320 q 1016 277 1016 218 q 1016 160 1002 117 q 988 74 963 45 q 938 17 905 3 q 871 -11 830 -11 q 790 -11 755 3 q 721 17 697 45 q 672 74 658 117 q 644 160 644 218 z m 749 217 q 749 179 755 152 q 761 126 771 110 q 782 93 797 86 q 812 79 830 79 q 848 79 863 86 q 877 93 888 110 q 898 126 904 152 q 910 179 910 217 q 910 255 904 282 q 898 308 888 324 q 877 341 863 348 q 848 355 830 355 q 812 355 797 348 q 782 341 771 324 q 761 308 755 282 q 749 255 749 217 z"},"m":{"x_min":0,"x_max":954,"ha":954,"o":"m 83 554 l 188 554 l 194 492 q 220 525 260 545 q 299 565 357 565 q 414 565 454 542 q 494 519 515 472 q 527 492 544 509 q 561 526 582 539 q 604 551 631 558 q 658 565 691 565 q 777 565 824 513 q 871 460 871 353 l 871 0 l 752 0 l 752 349 q 752 413 728 443 q 704 474 659 474 q 621 474 588 457 q 556 440 533 406 q 534 394 535 380 q 536 367 536 353 l 536 0 l 418 0 l 418 349 q 418 413 394 443 q 369 474 325 474 q 288 474 256 458 q 225 443 202 411 l 202 0 l 83 0 z"},"#":{"x_min":0,"x_max":932,"ha":932,"o":"m 225 234 l 78 234 l 78 329 l 245 329 l 284 517 l 118 517 l 120 612 l 304 612 l 355 856 l 460 856 l 409 612 l 581 612 l 632 856 l 736 856 l 685 612 l 854 612 l 854 517 l 666 517 l 626 329 l 815 329 l 815 234 l 606 234 l 558 0 l 453 0 l 502 234 l 330 234 l 281 0 l 176 0 z m 521 329 l 561 517 l 389 517 l 350 329 z"},",":{"x_min":0,"x_max":365,"ha":365,"o":"m 83 79 q 83 98 89 115 q 96 131 108 143 q 121 154 138 161 q 156 167 178 167 q 201 167 221 160 q 241 152 255 135 q 269 118 277 92 q 285 66 285 30 q 285 -11 274 -49 q 263 -86 239 -116 q 216 -146 180 -165 q 144 -184 95 -188 l 95 -107 q 120 -103 137 -94 q 153 -85 163 -73 q 172 -60 176 -44 q 180 -28 180 -11 q 133 -11 108 14 q 83 38 83 79 z"},"n":{"x_min":0,"x_max":619,"ha":619,"o":"m 83 554 l 188 554 l 194 492 q 220 525 260 545 q 299 565 357 565 q 442 565 489 513 q 536 460 536 353 l 536 0 l 418 0 l 418 349 q 418 413 394 443 q 369 474 325 474 q 288 474 256 458 q 225 443 202 411 l 202 0 l 83 0 z"},"h":{"x_min":0,"x_max":612,"ha":612,"o":"m 83 835 l 202 835 l 202 499 q 226 529 263 547 q 300 565 355 565 q 440 565 485 513 q 529 460 529 353 l 529 0 l 411 0 l 411 349 q 411 413 389 443 q 367 474 323 474 q 285 474 254 457 q 224 441 202 407 l 202 0 l 83 0 z"},"z":{"x_min":0,"x_max":499,"ha":499,"o":"m 284 469 l 68 469 l 68 554 l 458 554 l 217 86 l 444 86 l 444 0 l 40 0 z"},"B":{"x_min":0,"x_max":656,"ha":656,"o":"m 101 767 q 127 768 149 769 q 171 770 192 770 q 212 770 233 770 q 253 770 277 770 q 360 770 415 756 q 470 741 502 716 q 534 691 546 656 q 559 622 559 581 q 559 519 535 478 q 510 437 462 407 q 534 383 568 337 q 601 290 601 217 q 601 165 583 124 q 565 83 527 55 q 488 26 428 11 q 368 -3 283 -3 q 241 -3 196 -3 q 150 -2 101 0 z m 221 442 q 235 441 248 441 q 261 440 273 440 q 322 440 354 450 q 386 459 406 476 q 425 492 433 514 q 440 537 440 562 q 440 587 432 607 q 424 628 406 642 q 387 657 356 665 q 325 672 279 672 q 266 672 251 672 q 237 671 221 670 z m 222 96 q 238 95 253 94 q 269 94 283 94 q 341 94 380 103 q 418 113 441 130 q 464 147 473 171 q 482 195 482 223 q 482 288 437 322 q 391 357 294 357 q 277 357 259 356 q 241 354 222 353 l 221 353 l 221 96 z"},"K":{"x_min":0,"x_max":629,"ha":629,"o":"m 104 767 l 224 767 l 224 378 l 464 767 l 588 767 l 380 441 l 613 0 l 483 0 l 310 341 l 224 205 l 224 0 l 104 0 z"},"R":{"x_min":0,"x_max":625,"ha":625,"o":"m 101 767 q 128 768 151 769 q 173 770 195 770 q 216 770 237 770 q 258 770 282 770 q 363 770 420 752 q 476 735 511 704 q 546 673 562 630 q 578 588 578 538 q 578 460 541 403 q 504 346 427 317 l 593 0 l 461 0 l 310 295 q 301 294 292 294 q 283 294 273 294 q 248 294 221 295 l 221 0 l 101 0 z m 221 398 q 240 396 257 394 q 274 393 290 393 q 337 393 370 404 q 403 415 423 433 q 443 452 452 478 q 460 503 460 532 q 460 562 451 588 q 441 614 419 632 q 397 651 362 661 q 327 672 277 672 q 264 672 250 672 q 236 671 221 670 z"},"T":{"x_min":0,"x_max":547,"ha":547,"o":"m 214 668 l 32 668 l 32 767 l 515 767 l 515 668 l 333 668 l 333 0 l 214 0 z"},"P":{"x_min":0,"x_max":604,"ha":604,"o":"m 101 767 q 128 768 151 769 q 173 770 195 770 q 216 770 237 770 q 258 770 282 770 q 363 770 420 753 q 476 735 511 704 q 546 672 562 629 q 578 585 578 532 q 578 478 562 432 q 545 386 509 353 q 473 319 417 300 q 360 281 279 281 q 266 281 251 282 q 237 282 221 283 l 221 0 l 101 0 z m 221 387 q 240 384 256 383 q 273 382 289 382 q 337 382 369 394 q 401 405 421 425 q 440 445 449 471 q 457 498 457 528 q 457 561 448 587 q 438 614 416 633 q 395 652 359 662 q 323 672 271 672 q 260 672 247 672 q 234 671 221 670 z"},"|":{"x_min":0,"x_max":321,"ha":321,"o":"m 111 934 l 210 934 l 210 -208 l 111 -208 z"},"t":{"x_min":0,"x_max":375,"ha":375,"o":"m 107 468 l 47 468 l 47 554 l 110 554 l 122 722 l 224 722 l 224 554 l 327 554 l 327 468 l 224 468 l 224 152 q 224 134 228 122 q 232 110 240 103 q 249 96 260 93 q 271 90 285 90 q 306 90 319 94 q 333 98 343 102 l 343 5 q 327 0 306 -6 q 285 -11 254 -11 q 220 -11 193 -2 q 166 8 146 27 q 127 47 117 77 q 107 106 107 147 z"},"M":{"x_min":0,"x_max":867,"ha":867,"o":"m 104 767 l 263 767 l 400 446 l 429 366 l 438 366 l 467 446 l 604 767 l 763 767 l 763 0 l 643 0 l 643 422 l 656 618 l 650 618 l 461 186 l 406 186 l 211 618 l 206 618 l 224 422 l 224 0 l 104 0 z"},"g":{"x_min":0,"x_max":591,"ha":591,"o":"m 53 -98 q 53 -55 76 -28 q 100 -1 139 14 q 117 28 104 53 q 91 78 91 105 q 90 137 110 165 q 129 194 165 210 q 119 234 91 276 q 64 318 64 377 q 64 422 82 457 q 99 492 129 516 q 158 540 198 552 q 237 565 281 565 q 324 565 362 554 q 399 543 429 522 q 443 545 466 555 q 490 565 518 565 l 565 565 l 565 477 l 538 477 q 524 477 509 475 q 494 472 481 467 q 494 446 500 422 q 507 397 507 369 q 507 323 490 289 q 472 254 442 230 q 413 207 373 195 q 334 183 290 183 q 279 183 269 183 q 258 184 249 185 q 226 181 214 167 q 202 154 202 130 q 202 109 212 97 q 222 84 238 79 q 254 73 274 72 q 294 70 313 70 q 344 70 373 69 q 403 67 429 61 q 456 56 478 46 q 500 36 516 19 q 533 1 542 -23 q 551 -48 551 -83 q 551 -121 535 -152 q 519 -183 487 -206 q 456 -229 408 -241 q 361 -254 298 -254 q 235 -254 189 -242 q 143 -231 112 -210 q 82 -189 67 -161 q 53 -132 53 -98 z m 285 269 q 336 269 365 294 q 393 318 393 373 q 393 428 364 453 q 335 479 286 479 q 234 479 207 453 q 179 427 179 373 q 179 345 186 325 q 193 306 207 293 q 221 281 240 275 q 260 269 285 269 z m 167 -83 q 167 -101 175 -116 q 182 -132 198 -143 q 215 -155 241 -161 q 267 -168 305 -168 q 372 -168 404 -146 q 437 -124 437 -87 q 437 -64 425 -50 q 413 -37 392 -30 q 372 -22 346 -21 q 319 -19 291 -19 q 276 -19 257 -18 q 238 -17 222 -16 q 203 -20 192 -28 q 182 -35 176 -44 q 171 -53 169 -63 q 167 -74 167 -83 z"},"j":{"x_min":0,"x_max":297,"ha":297,"o":"m 147 676 q 130 676 116 682 q 102 687 91 697 q 81 707 76 720 q 70 734 70 750 q 70 767 76 781 q 81 794 91 804 q 102 813 116 819 q 130 824 147 824 q 184 824 205 804 q 226 784 226 750 q 226 717 205 697 q 184 676 147 676 z m 89 554 l 208 554 l 208 -91 q 208 -128 196 -158 q 185 -188 164 -209 q 142 -230 111 -242 q 79 -254 39 -254 l 39 -167 q 65 -165 77 -151 q 89 -137 89 -109 z"},"i":{"x_min":0,"x_max":295,"ha":295,"o":"m 147 676 q 130 676 116 682 q 102 687 91 697 q 81 707 76 720 q 70 734 70 750 q 70 767 76 781 q 81 794 91 804 q 102 813 116 819 q 130 824 147 824 q 184 824 205 804 q 226 784 226 750 q 226 717 205 697 q 184 676 147 676 z m 89 554 l 206 554 l 206 0 l 89 0 z"},"y":{"x_min":0,"x_max":508,"ha":508,"o":"m 103 -155 q 119 -154 134 -151 q 148 -148 162 -139 q 176 -130 188 -113 q 200 -95 209 -65 l 233 16 l 189 16 l -3 554 l 124 554 l 267 118 l 274 118 l 386 554 l 509 554 l 332 -39 q 317 -86 301 -120 q 285 -155 267 -179 q 250 -203 230 -217 q 211 -232 191 -240 q 170 -249 148 -251 q 126 -254 103 -254 l 103 -155 z"},"@":{"x_min":0,"x_max":1118,"ha":1118,"o":"m 93 205 q 93 279 111 347 q 129 416 163 474 q 197 533 245 580 q 292 628 352 662 q 411 696 480 714 q 549 732 626 732 q 713 732 786 708 q 859 684 912 635 q 965 587 995 516 q 1025 445 1025 353 q 1025 283 1008 220 q 991 157 958 109 q 925 61 877 32 q 829 4 768 4 q 736 4 711 11 q 687 19 669 31 q 651 44 641 61 q 631 77 627 95 q 591 47 551 26 q 511 4 472 2 q 440 1 413 13 q 385 25 365 49 q 345 73 333 109 q 322 145 322 192 q 322 259 344 315 q 367 370 404 410 q 441 450 490 472 q 539 494 591 494 q 625 494 649 486 q 674 478 691 466 l 711 498 l 797 498 l 751 208 q 748 187 747 165 q 745 144 749 125 q 752 107 762 96 q 772 84 793 84 q 823 84 848 109 q 873 133 891 172 q 909 211 919 260 q 930 308 930 356 q 930 434 905 488 q 879 542 837 577 q 794 612 739 628 q 683 644 622 644 q 561 644 505 629 q 450 614 402 587 q 354 560 314 521 q 274 482 247 434 q 219 385 203 328 q 188 271 188 206 q 188 121 215 56 q 241 -9 289 -52 q 336 -96 402 -118 q 467 -141 546 -141 q 587 -141 625 -135 q 664 -129 697 -119 q 730 -109 759 -95 q 787 -82 808 -66 l 808 -156 q 787 -172 757 -184 q 727 -197 691 -206 q 655 -214 616 -219 q 576 -224 536 -224 q 430 -224 347 -192 q 265 -160 208 -103 q 152 -46 123 32 q 93 111 93 205 z m 444 199 q 444 145 461 121 q 478 97 511 97 q 542 97 575 116 q 607 136 634 175 l 666 400 q 655 406 641 409 q 626 412 610 412 q 571 412 540 395 q 509 377 488 348 q 466 319 455 281 q 444 242 444 199 z"},".":{"x_min":0,"x_max":354,"ha":354,"o":"m 83 79 q 83 99 89 115 q 96 131 108 143 q 120 155 137 161 q 155 167 176 167 q 198 167 215 161 q 233 155 245 143 q 258 131 264 115 q 271 99 271 79 q 271 59 264 43 q 258 27 245 15 q 233 3 215 -3 q 198 -9 176 -9 q 155 -9 137 -3 q 120 3 108 15 q 96 27 89 43 q 83 59 83 79 z"},"p":{"x_min":0,"x_max":576,"ha":576,"o":"m 187 -69 l 187 -254 l 69 -254 l 69 554 l 173 554 l 180 511 q 202 535 235 550 q 267 565 314 565 q 362 565 402 547 q 442 529 472 494 q 501 459 518 406 q 534 354 534 285 q 534 208 515 152 q 495 97 462 60 q 429 24 385 6 q 342 -11 294 -11 q 261 -11 234 -4 q 207 4 185 18 z m 187 103 q 206 90 228 85 q 249 81 273 81 q 303 81 329 92 q 354 103 372 126 q 391 150 401 188 q 411 225 411 278 q 411 329 402 366 q 393 403 376 427 q 359 451 335 462 q 311 474 281 474 q 227 474 187 438 z"},"X":{"x_min":0,"x_max":607,"ha":607,"o":"m 231 400 l 19 767 l 152 767 l 304 501 l 435 767 l 562 767 l 364 400 l 595 0 l 461 0 l 292 298 l 139 0 l 12 0 z"},"*":{"x_min":0,"x_max":644,"ha":644,"o":"m 289 591 l 135 491 l 90 569 l 248 648 l 89 729 l 134 807 l 289 705 l 278 890 l 369 890 l 358 708 l 509 807 l 554 729 l 396 649 l 554 569 l 509 491 l 358 590 l 369 409 l 278 409 z"},"Y":{"x_min":0,"x_max":587,"ha":587,"o":"m 243 311 l 11 767 l 138 767 l 295 429 l 309 429 l 450 767 l 576 767 l 363 310 l 363 0 l 243 0 z"},"c":{"x_min":0,"x_max":469,"ha":469,"o":"m 42 275 q 42 346 59 400 q 76 454 109 490 q 142 527 189 546 q 236 565 297 565 q 337 565 370 558 q 402 551 431 537 l 431 422 q 401 451 369 461 q 336 471 302 471 q 234 471 199 424 q 164 378 164 281 q 164 179 201 130 q 239 81 310 81 q 345 81 376 92 q 407 104 435 128 l 435 29 q 401 8 367 -1 q 334 -11 294 -11 q 237 -11 191 8 q 145 26 111 63 q 78 100 60 153 q 42 207 42 275 z"},"!":{"x_min":0,"x_max":358,"ha":358,"o":"m 110 840 l 246 840 l 219 307 l 136 307 z m 83 79 q 83 99 89 115 q 96 131 108 143 q 120 155 137 161 q 155 167 176 167 q 198 167 215 161 q 233 155 245 143 q 258 131 264 115 q 271 99 271 79 q 271 59 264 43 q 258 27 245 15 q 233 3 215 -3 q 198 -9 176 -9 q 155 -9 137 -3 q 120 3 108 15 q 96 27 89 43 q 83 59 83 79 z"},"/":{"x_min":0,"x_max":763,"ha":763,"o":"m 541 856 l 645 856 l 223 -139 l 118 -139 z"},"[":{"x_min":0,"x_max":461,"ha":461,"o":"m 111 934 l 389 934 l 389 847 l 230 847 l 230 -21 l 389 -21 l 389 -108 l 111 -108 z"},"6":{"x_min":0,"x_max":632,"ha":632,"o":"m 330 -11 q 270 -11 220 11 q 171 34 135 80 q 99 126 79 197 q 59 268 59 365 q 59 473 83 551 q 107 629 149 680 q 191 730 247 754 q 302 778 365 778 q 383 778 403 776 q 424 774 444 770 q 464 766 482 760 q 500 754 512 747 l 512 633 q 495 646 477 654 q 458 663 440 668 q 422 673 405 675 q 388 677 374 677 q 328 677 292 657 q 255 638 230 602 q 205 566 192 515 q 179 465 179 402 l 184 402 q 214 449 257 474 q 300 500 358 500 q 404 500 444 483 q 484 466 514 434 q 544 402 562 356 q 579 310 579 252 q 579 195 562 146 q 544 98 512 63 q 480 28 434 9 q 387 -11 330 -11 z m 333 90 q 360 90 383 100 q 406 109 423 129 q 440 148 449 177 q 458 205 458 242 q 458 279 449 308 q 440 337 423 357 q 406 377 382 388 q 358 399 329 399 q 288 399 250 378 q 212 357 183 314 q 183 250 196 207 q 209 164 230 137 q 251 111 278 101 q 305 90 333 90 z"},"r":{"x_min":0,"x_max":394,"ha":394,"o":"m 83 554 l 188 554 l 194 490 q 221 525 260 545 q 299 565 346 565 q 365 565 373 562 l 373 438 q 356 446 334 449 q 312 452 289 448 q 265 444 242 432 q 220 420 202 399 l 202 0 l 83 0 z"},"2":{"x_min":0,"x_max":567,"ha":567,"o":"m 58 73 q 125 148 175 207 q 224 266 258 311 q 293 355 314 389 q 335 422 348 448 q 360 474 364 494 q 368 515 368 534 q 368 566 358 592 q 349 617 332 634 q 314 651 291 660 q 267 669 239 669 q 221 669 199 665 q 178 660 156 649 q 134 639 113 623 q 92 606 73 583 l 73 715 q 114 748 158 763 q 202 778 252 778 q 307 778 350 761 q 394 745 425 716 q 456 686 472 644 q 488 603 488 552 q 488 514 477 471 q 465 429 435 377 q 405 325 353 260 q 300 194 219 110 l 498 110 l 498 0 l 58 0 z"},"{":{"x_min":0,"x_max":509,"ha":509,"o":"m 184 267 q 184 287 176 305 q 168 323 155 336 q 142 350 125 359 q 108 368 89 371 l 89 458 q 108 461 125 470 q 142 479 155 492 q 168 505 176 523 q 184 540 184 561 l 184 763 q 184 842 220 884 q 256 925 335 925 l 420 925 l 420 838 l 359 838 q 333 838 318 824 q 302 809 302 775 l 302 577 q 302 544 291 516 q 280 488 262 467 q 245 446 222 434 q 200 421 178 420 l 178 406 q 200 405 222 393 q 245 381 262 360 q 280 339 291 311 q 302 283 302 250 l 302 52 q 302 18 318 3 q 333 -11 359 -11 l 420 -11 l 420 -98 l 335 -98 q 256 -98 220 -56 q 184 -15 184 64 z"},"9":{"x_min":0,"x_max":632,"ha":632,"o":"m 125 134 q 142 121 161 113 q 179 104 197 99 q 215 94 232 92 q 249 90 263 90 q 309 90 345 109 q 382 129 407 165 q 432 201 445 251 q 458 302 458 364 l 453 364 q 423 318 380 292 q 337 267 279 267 q 233 267 193 283 q 153 300 123 332 q 93 364 76 410 q 59 456 59 514 q 59 571 76 620 q 93 668 125 703 q 158 738 204 758 q 250 778 308 778 q 367 778 417 755 q 467 733 503 687 q 539 641 559 570 q 579 499 579 401 q 579 329 568 271 q 557 212 537 166 q 517 120 488 87 q 460 53 426 31 q 392 10 353 -1 q 314 -11 273 -11 q 254 -11 234 -9 q 213 -7 193 -3 q 173 0 156 6 q 138 12 125 20 z m 309 367 q 350 367 387 388 q 425 410 454 452 q 454 517 441 560 q 428 603 407 629 q 386 655 359 666 q 333 677 305 677 q 277 677 254 667 q 231 657 214 638 q 197 619 188 590 q 179 562 179 524 q 179 488 188 458 q 197 429 214 409 q 231 389 255 378 q 279 367 309 367 z"}," ":{"x_min":0,"x_max":298,"ha":298,"o":""},"I":{"x_min":0,"x_max":312,"ha":312,"o":"m 96 767 l 216 767 l 216 0 l 96 0 z"},"H":{"x_min":0,"x_max":708,"ha":708,"o":"m 104 767 l 224 767 l 224 464 l 484 464 l 484 767 l 604 767 l 604 0 l 484 0 l 484 368 l 224 368 l 224 0 l 104 0 z"},"4":{"x_min":0,"x_max":657,"ha":657,"o":"m 41 271 l 40 272 l 41 272 l 41 273 l 387 767 l 492 767 l 492 273 l 616 273 l 616 170 l 492 170 l 492 0 l 375 0 l 375 170 l 41 170 z m 375 273 l 375 378 l 390 617 l 167 273 z"},"~":{"x_min":0,"x_max":643,"ha":643,"o":"m 83 327 q 84 368 99 396 q 113 424 135 441 q 157 458 184 466 q 211 474 237 474 q 269 474 291 465 q 313 457 332 446 q 351 436 370 427 q 389 418 416 418 q 428 418 440 421 q 452 423 462 429 q 473 434 481 443 q 490 453 497 466 l 559 466 q 558 426 544 398 q 530 370 508 352 q 486 335 459 327 q 432 320 405 320 q 384 320 367 324 q 351 328 337 334 q 323 340 311 347 q 298 354 286 361 q 273 367 259 371 q 245 375 227 375 q 214 375 203 373 q 191 371 180 365 q 170 359 161 350 q 152 341 146 327 l 83 327 z"},"D":{"x_min":0,"x_max":664,"ha":664,"o":"m 104 767 q 121 767 140 768 q 159 768 179 769 q 200 769 219 770 q 238 770 253 770 q 357 770 428 746 q 499 721 542 674 q 585 626 604 556 q 623 486 623 395 q 623 299 602 225 q 582 151 537 100 q 492 49 419 23 q 346 -3 242 -3 q 207 -3 174 -2 q 142 0 104 0 z m 224 96 q 233 95 242 95 q 250 95 263 95 q 330 95 375 112 q 421 129 449 166 q 477 202 489 258 q 501 313 501 391 q 501 468 489 521 q 477 575 448 608 q 420 642 374 657 q 327 672 258 672 q 247 672 240 672 q 232 672 224 671 z"},"^":{"x_min":0,"x_max":501,"ha":501,"o":"m 192 768 l 318 768 l 493 213 l 380 213 l 260 641 l 250 641 l 123 213 l 8 213 z"},"0":{"x_min":0,"x_max":655,"ha":655,"o":"m 322 -11 q 266 -11 218 11 q 169 32 134 79 q 99 125 79 198 q 59 271 59 374 q 59 478 79 553 q 100 629 136 678 q 173 728 223 752 q 273 776 333 776 q 389 776 437 754 q 485 733 520 687 q 556 640 576 567 q 596 494 596 391 q 596 288 576 212 q 555 136 519 87 q 482 37 432 13 q 381 -11 322 -11 z m 328 92 q 358 92 385 105 q 413 118 433 150 q 453 183 465 240 q 476 296 476 382 q 476 468 465 524 q 454 581 434 614 q 414 646 386 660 q 359 673 327 673 q 296 673 269 660 q 242 647 222 615 q 202 582 190 525 q 179 469 179 382 q 179 297 190 241 q 201 185 221 152 q 241 119 269 105 q 296 92 328 92 z"},"F":{"x_min":0,"x_max":531,"ha":531,"o":"m 104 767 l 502 767 l 502 670 l 224 670 l 224 445 l 435 445 l 435 348 l 224 348 l 224 0 l 104 0 z"},"`":{"x_min":0,"x_max":49,"ha":49,"o":"m -189 841 l -51 841 l 79 636 l -26 636 z"},"k":{"x_min":0,"x_max":554,"ha":554,"o":"m 83 835 l 202 835 l 202 333 l 386 554 l 524 554 l 328 339 l 557 0 l 424 0 l 253 257 l 202 201 l 202 0 l 83 0 z"},"u":{"x_min":0,"x_max":602,"ha":602,"o":"m 83 554 l 202 554 l 202 206 q 202 142 223 111 q 244 81 292 81 q 324 81 352 95 q 380 109 401 140 l 401 554 l 520 554 l 520 0 l 415 0 l 408 59 q 385 27 349 8 q 313 -11 258 -11 q 171 -11 127 41 q 83 94 83 202 z"},"]":{"x_min":0,"x_max":461,"ha":461,"o":""},"U":{"x_min":0,"x_max":707,"ha":707,"o":"m 101 767 l 222 767 l 222 246 q 222 205 231 176 q 240 146 257 127 q 273 108 298 99 q 322 90 353 90 q 384 90 408 99 q 433 108 450 127 q 467 146 476 176 q 485 205 485 246 l 485 767 l 605 767 l 605 258 q 605 194 587 144 q 569 94 536 60 q 502 25 456 7 q 409 -11 353 -11 q 296 -11 250 7 q 204 25 170 60 q 137 94 119 144 q 101 194 101 258 z"},"o":{"x_min":0,"x_max":581,"ha":581,"o":"m 46 276 q 46 346 64 400 q 82 454 115 490 q 147 527 192 546 q 237 565 291 565 q 344 565 389 546 q 434 528 466 492 q 499 456 517 402 q 536 349 536 279 q 536 209 517 155 q 499 101 467 64 q 434 27 389 8 q 344 -11 291 -11 q 237 -11 192 8 q 147 26 115 63 q 82 99 64 153 q 46 206 46 276 z m 291 81 q 318 81 341 92 q 364 104 380 128 q 396 152 406 189 q 415 227 415 279 q 415 331 406 367 q 396 404 380 428 q 364 452 341 463 q 318 474 291 474 q 263 474 240 462 q 217 451 201 427 q 185 402 176 365 q 167 328 167 276 q 167 224 176 187 q 185 150 201 127 q 217 103 240 92 q 263 81 291 81 z"},"N":{"x_min":0,"x_max":729,"ha":729,"o":"m 104 767 l 205 767 l 478 281 l 511 192 l 517 192 l 504 343 l 504 767 l 624 767 l 624 0 l 524 0 l 245 485 l 217 551 l 211 551 l 224 373 l 224 0 l 104 0 z"},"+":{"x_min":0,"x_max":656,"ha":656,"o":"m 275 315 l 100 315 l 100 420 l 275 420 l 275 602 l 379 602 l 379 420 l 556 420 l 556 315 l 379 315 l 379 130 l 275 130 z"},"G":{"x_min":0,"x_max":651,"ha":651,"o":"m 371 -11 q 301 -11 243 13 q 185 37 144 85 q 103 134 80 209 q 57 285 57 388 q 57 488 78 561 q 100 634 139 683 q 178 731 232 754 q 287 778 353 778 q 381 778 409 774 q 437 770 461 762 q 485 754 505 744 q 524 734 537 723 l 537 604 q 501 641 458 659 q 415 677 369 677 q 326 677 291 660 q 256 644 231 609 q 206 574 192 519 q 179 464 179 387 q 179 309 193 253 q 207 197 234 161 q 260 125 298 107 q 336 90 383 90 q 402 90 421 93 q 441 96 458 102 l 458 317 l 331 317 l 331 415 l 578 415 l 578 57 q 539 23 484 6 q 430 -11 371 -11 z"},"q":{"x_min":0,"x_max":577,"ha":577,"o":"m 263 -11 q 215 -11 175 7 q 134 24 105 60 q 75 96 58 149 q 42 202 42 272 q 42 341 59 396 q 76 450 108 488 q 140 525 187 545 q 234 565 293 565 q 312 565 329 562 q 345 560 358 555 q 371 551 380 546 q 390 542 396 537 l 401 556 l 508 556 l 508 -254 l 390 -254 l 390 -71 l 392 38 q 370 16 338 2 q 307 -11 263 -11 z m 295 81 q 351 81 390 116 l 390 458 q 353 474 313 474 q 278 474 250 463 q 223 452 204 428 q 185 404 175 366 q 165 329 165 275 q 165 225 175 188 q 184 151 201 127 q 219 103 242 92 q 266 81 295 81 z"},"d":{"x_min":0,"x_max":597,"ha":597,"o":"m 263 -11 q 215 -11 175 7 q 134 24 105 60 q 75 96 58 149 q 42 202 42 272 q 42 341 58 396 q 75 450 108 488 q 141 525 190 545 q 240 565 305 565 q 333 565 355 560 q 377 556 396 549 l 395 598 l 395 835 l 513 835 l 513 202 q 513 177 514 148 q 516 120 518 93 q 520 65 522 41 q 525 17 528 0 l 412 0 q 409 10 407 22 q 405 34 403 47 q 380 21 345 5 q 311 -11 263 -11 z m 295 81 q 353 81 395 118 l 395 458 q 354 474 313 474 q 278 474 250 463 q 223 452 204 428 q 185 404 175 366 q 165 329 165 275 q 165 225 175 188 q 184 151 201 127 q 219 103 242 92 q 266 81 295 81 z"},"1":{"x_min":0,"x_max":438,"ha":438,"o":"m 192 632 l 60 571 l 60 686 l 222 767 l 310 767 l 310 0 l 192 0 z"},"5":{"x_min":0,"x_max":605,"ha":605,"o":"m 76 148 q 103 130 128 119 q 154 107 177 101 q 201 95 221 92 q 242 90 260 90 q 303 90 335 101 q 367 112 388 131 q 409 150 419 177 q 429 204 429 235 q 429 269 418 296 q 408 323 387 342 q 366 360 335 370 q 305 380 265 380 q 224 380 181 367 q 138 354 94 325 l 94 767 l 493 767 l 493 668 l 210 668 l 210 455 l 221 455 q 243 466 267 474 q 290 481 322 481 q 369 481 410 464 q 451 448 482 417 q 513 385 531 341 q 549 297 549 242 q 549 187 530 141 q 510 94 473 61 q 437 27 384 8 q 331 -11 264 -11 q 244 -11 219 -9 q 195 -6 169 -1 q 144 3 119 11 q 95 19 76 29 z"}}}
